<svg xmlns="http://www.w3.org/2000/svg" viewBox="0 0 762 718" role="img" aria-label="The Africa Plug"><g fill="#fff" fill-rule="evenodd"><path d="M 87 414 L 89 431 L 99 471 L 111 504 L 126 535 L 153 577 L 170 598 L 193 622 L 210 637 L 240 659 L 266 674 L 291 686 L 317 696 L 345 704 L 369 709 L 407 713 L 439 713 L 468 710 L 491 706 L 521 698 L 544 690 L 579 674 L 603 660 L 632 639 L 658 616 L 678 594 L 698 568 L 714 543 L 730 512 L 740 487 L 751 451 L 756 425 L 740 426 L 739 437 L 730 470 L 715 508 L 689 554 L 666 584 L 661 588 L 637 578 L 605 568 L 577 563 L 568 556 L 564 549 L 564 546 L 561 555 L 559 557 L 531 552 L 492 547 L 429 544 L 427 468 L 415 469 L 414 544 L 358 546 L 315 551 L 283 557 L 280 552 L 276 536 L 274 533 L 263 488 L 257 448 L 255 414 L 241 414 L 244 453 L 249 485 L 257 520 L 269 559 L 264 562 L 221 573 L 182 587 L 171 575 L 153 550 L 139 527 L 127 503 L 118 481 L 109 452 L 102 415 Z M 653 598 L 635 616 L 617 631 L 574 659 L 530 679 L 496 689 L 481 692 L 478 691 L 480 688 L 500 674 L 529 643 L 549 613 L 561 589 L 565 577 L 569 572 L 616 584 L 646 594 Z M 192 597 L 194 595 L 220 586 L 273 572 L 276 575 L 279 585 L 291 609 L 306 633 L 316 646 L 341 672 L 367 691 L 363 692 L 352 690 L 315 679 L 267 657 L 226 630 L 206 613 L 193 600 Z M 553 569 L 554 572 L 550 583 L 533 616 L 506 652 L 488 669 L 466 684 L 452 691 L 427 697 L 427 558 L 473 558 L 520 563 Z M 290 568 L 320 563 L 367 558 L 407 556 L 415 557 L 416 652 L 418 694 L 415 697 L 404 695 L 379 685 L 359 672 L 338 653 L 319 630 L 299 597 L 288 572 Z"/><path d="M 87 298 L 87 303 L 102 303 L 103 292 L 111 257 L 122 225 L 139 189 L 150 170 L 178 132 L 182 132 L 223 148 L 271 161 L 261 193 L 252 230 L 243 286 L 243 300 L 256 301 L 257 283 L 264 236 L 275 190 L 284 164 L 352 174 L 413 176 L 415 178 L 415 207 L 428 207 L 428 178 L 430 176 L 486 174 L 526 169 L 556 163 L 561 171 L 572 217 L 585 220 L 580 194 L 570 162 L 574 159 L 583 158 L 619 148 L 664 131 L 692 167 L 707 192 L 719 217 L 734 260 L 740 286 L 742 303 L 757 303 L 756 290 L 747 250 L 735 216 L 718 180 L 702 154 L 686 132 L 670 113 L 648 91 L 624 71 L 602 56 L 582 44 L 550 29 L 516 17 L 497 12 L 463 6 L 438 4 L 403 4 L 380 6 L 346 12 L 312 22 L 260 45 L 232 62 L 208 80 L 193 93 L 170 117 L 142 154 L 126 181 L 105 227 L 96 259 L 94 262 Z M 475 25 L 478 24 L 518 34 L 548 45 L 573 57 L 598 72 L 624 91 L 639 104 L 654 119 L 654 121 L 650 124 L 616 136 L 580 146 L 567 148 L 564 145 L 561 135 L 549 109 L 527 74 L 510 54 L 492 38 L 477 28 Z M 370 25 L 368 28 L 359 33 L 345 44 L 318 73 L 300 99 L 276 148 L 271 148 L 239 140 L 193 124 L 189 121 L 196 112 L 220 90 L 248 70 L 270 57 L 295 45 L 328 33 L 360 25 Z M 427 21 L 442 23 L 467 34 L 487 48 L 505 65 L 519 82 L 537 111 L 554 149 L 551 152 L 523 157 L 480 162 L 445 164 L 428 163 L 426 59 Z M 417 21 L 418 36 L 416 66 L 415 163 L 391 164 L 358 162 L 316 157 L 290 152 L 289 148 L 297 129 L 312 101 L 328 78 L 342 62 L 360 46 L 381 32 L 402 23 Z"/></g><g fill="#f4026a" fill-rule="evenodd"><path d="M 706 447 L 704 447 L 696 458 L 690 462 L 687 462 L 684 466 L 684 480 L 680 488 L 681 499 L 685 503 L 690 503 L 694 501 L 697 495 L 704 472 L 709 461 L 709 455 Z"/><path d="M 447 323 L 446 320 L 440 316 L 404 316 L 400 310 L 401 304 L 399 300 L 354 300 L 336 310 L 329 318 L 324 328 L 322 336 L 319 338 L 310 339 L 308 344 L 18 344 L 8 351 L 5 358 L 5 363 L 10 373 L 18 377 L 309 377 L 311 374 L 320 376 L 323 379 L 326 389 L 333 399 L 347 409 L 357 412 L 398 412 L 401 409 L 401 400 L 403 397 L 432 397 L 442 396 L 446 393 L 448 386 L 444 380 L 406 379 L 402 376 L 400 367 L 401 339 L 405 334 L 442 333 L 446 329 Z"/><path d="M 494 239 L 488 246 L 482 250 L 479 255 L 477 263 L 469 270 L 462 273 L 455 280 L 444 300 L 444 302 L 447 305 L 448 313 L 452 316 L 455 322 L 455 327 L 452 333 L 444 340 L 455 353 L 458 362 L 476 376 L 483 374 L 500 375 L 513 370 L 519 370 L 524 372 L 529 379 L 537 379 L 543 383 L 544 393 L 541 405 L 555 424 L 560 444 L 560 449 L 555 456 L 553 464 L 553 473 L 563 491 L 567 508 L 578 526 L 580 531 L 580 537 L 583 541 L 604 541 L 610 539 L 623 530 L 635 515 L 636 507 L 646 500 L 646 478 L 657 467 L 665 463 L 669 454 L 668 439 L 665 435 L 662 416 L 669 404 L 678 393 L 699 373 L 708 357 L 712 341 L 711 339 L 686 344 L 681 344 L 677 341 L 676 335 L 660 321 L 657 313 L 653 309 L 652 302 L 638 278 L 640 267 L 639 264 L 636 262 L 628 261 L 619 263 L 608 261 L 595 256 L 589 256 L 584 262 L 580 263 L 571 260 L 567 256 L 552 251 L 550 249 L 550 246 L 552 244 L 550 235 L 529 235 L 509 241 L 499 241 L 497 239 Z"/></g></svg>